<svg width="516" height="155" viewBox="0 0 516 155" fill="none" xmlns="http://www.w3.org/2000/svg">
<path d="M14.66 51V6.83H0.0300001V2H35.17V6.83H20.54V51H14.66ZM51.5546 51.84C48.6613 51.84 46.2579 51.35 44.3446 50.37C42.4313 49.39 41.0079 48.0833 40.0746 46.45C39.1413 44.8167 38.6746 43.0433 38.6746 41.13C38.6746 37.5833 40.0279 34.8533 42.7346 32.94C45.4413 31.0267 49.1279 30.07 53.7946 30.07H63.1746V29.65C63.1746 26.6167 62.3813 24.33 60.7946 22.79C59.2079 21.2033 57.0846 20.41 54.4246 20.41C52.1379 20.41 50.1546 20.9933 48.4746 22.16C46.8413 23.28 45.8146 24.9367 45.3946 27.13H39.3746C39.6079 24.61 40.4479 22.4867 41.8946 20.76C43.3879 19.0333 45.2313 17.7267 47.4246 16.84C49.6179 15.9067 51.9513 15.44 54.4246 15.44C59.2779 15.44 62.9179 16.7467 65.3446 19.36C67.8179 21.9267 69.0546 25.3567 69.0546 29.65V51H63.8046L63.4546 44.77C62.4746 46.73 61.0279 48.41 59.1146 49.81C57.2479 51.1633 54.7279 51.84 51.5546 51.84ZM52.4646 46.87C54.7046 46.87 56.6179 46.2867 58.2046 45.12C59.8379 43.9533 61.0746 42.4367 61.9146 40.57C62.7546 38.7033 63.1746 36.7433 63.1746 34.69V34.62H54.2846C50.8313 34.62 48.3813 35.2267 46.9346 36.44C45.5346 37.6067 44.8346 39.0767 44.8346 40.85C44.8346 42.67 45.4879 44.14 46.7946 45.26C48.1479 46.3333 50.0379 46.87 52.4646 46.87ZM81.0757 51V0.599998H86.9557V30.91L101.166 16.28H108.376L92.9757 31.96L110.336 51H102.846L86.9557 33.01V51H81.0757ZM132.63 51.84C129.317 51.84 126.377 51.0933 123.81 49.6C121.243 48.06 119.213 45.9367 117.72 43.23C116.273 40.5233 115.55 37.3267 115.55 33.64C115.55 30 116.273 26.8267 117.72 24.12C119.167 21.3667 121.173 19.2433 123.74 17.75C126.353 16.21 129.363 15.44 132.77 15.44C136.13 15.44 139.023 16.21 141.45 17.75C143.923 19.2433 145.813 21.2267 147.12 23.7C148.427 26.1733 149.08 28.8333 149.08 31.68C149.08 32.1933 149.057 32.7067 149.01 33.22C149.01 33.7333 149.01 34.3167 149.01 34.97H121.36C121.5 37.63 122.107 39.8467 123.18 41.62C124.3 43.3467 125.677 44.6533 127.31 45.54C128.99 46.4267 130.763 46.87 132.63 46.87C135.057 46.87 137.087 46.31 138.72 45.19C140.353 44.07 141.543 42.5533 142.29 40.64H148.1C147.167 43.86 145.37 46.5433 142.71 48.69C140.097 50.79 136.737 51.84 132.63 51.84ZM132.63 20.41C129.83 20.41 127.333 21.2733 125.14 23C122.993 24.68 121.757 27.1533 121.43 30.42H143.27C143.13 27.2933 142.057 24.8433 140.05 23.07C138.043 21.2967 135.57 20.41 132.63 20.41ZM185.579 66.4L194.189 47.64H192.159L178.369 16.28H184.739L196.219 43.3L208.399 16.28H214.489L191.739 66.4H185.579ZM236.434 51.84C233.167 51.84 230.227 51.0933 227.614 49.6C225.001 48.1067 222.924 46.0067 221.384 43.3C219.891 40.5467 219.144 37.3267 219.144 33.64C219.144 29.9533 219.914 26.7567 221.454 24.05C222.994 21.2967 225.071 19.1733 227.684 17.68C230.344 16.1867 233.307 15.44 236.574 15.44C239.841 15.44 242.781 16.1867 245.394 17.68C248.007 19.1733 250.061 21.2967 251.554 24.05C253.094 26.7567 253.864 29.9533 253.864 33.64C253.864 37.3267 253.094 40.5467 251.554 43.3C250.014 46.0067 247.914 48.1067 245.254 49.6C242.641 51.0933 239.701 51.84 236.434 51.84ZM236.434 46.8C238.441 46.8 240.307 46.31 242.034 45.33C243.761 44.35 245.161 42.88 246.234 40.92C247.307 38.96 247.844 36.5333 247.844 33.64C247.844 30.7467 247.307 28.32 246.234 26.36C245.207 24.4 243.831 22.93 242.104 21.95C240.377 20.97 238.534 20.48 236.574 20.48C234.567 20.48 232.701 20.97 230.974 21.95C229.247 22.93 227.847 24.4 226.774 26.36C225.701 28.32 225.164 30.7467 225.164 33.64C225.164 36.5333 225.701 38.96 226.774 40.92C227.847 42.88 229.224 44.35 230.904 45.33C232.631 46.31 234.474 46.8 236.434 46.8ZM277.91 51.84C273.803 51.84 270.536 50.6033 268.11 48.13C265.683 45.61 264.47 41.76 264.47 36.58V16.28H270.35V35.95C270.35 43.1833 273.313 46.8 279.24 46.8C282.273 46.8 284.77 45.7267 286.73 43.58C288.736 41.3867 289.74 38.2833 289.74 34.27V16.28H295.62V51H290.3L289.88 44.77C288.806 46.9633 287.196 48.69 285.05 49.95C282.95 51.21 280.57 51.84 277.91 51.84ZM308.498 51V16.28H313.818L314.308 22.93C315.382 20.6433 317.015 18.8233 319.208 17.47C321.402 16.1167 324.108 15.44 327.328 15.44V21.6H325.718C323.665 21.6 321.775 21.9733 320.048 22.72C318.322 23.42 316.945 24.6333 315.918 26.36C314.892 28.0867 314.378 30.4667 314.378 33.5V51H308.498ZM2.83 154.4V104.28H8.15L8.71 110.02C9.83 108.34 11.4167 106.823 13.47 105.47C15.57 104.117 18.23 103.44 21.45 103.44C24.9033 103.44 27.9133 104.233 30.48 105.82C33.0467 107.407 35.03 109.577 36.43 112.33C37.8767 115.083 38.6 118.21 38.6 121.71C38.6 125.21 37.8767 128.337 36.43 131.09C35.03 133.797 33.0233 135.943 30.41 137.53C27.8433 139.07 24.8333 139.84 21.38 139.84C18.5333 139.84 15.99 139.257 13.75 138.09C11.5567 136.923 9.87667 135.29 8.71 133.19V154.4H2.83ZM20.75 134.73C23.0833 134.73 25.1367 134.193 26.91 133.12C28.6833 132 30.0833 130.46 31.11 128.5C32.1367 126.54 32.65 124.253 32.65 121.64C32.65 119.027 32.1367 116.74 31.11 114.78C30.0833 112.82 28.6833 111.303 26.91 110.23C25.1367 109.11 23.0833 108.55 20.75 108.55C18.4167 108.55 16.3633 109.11 14.59 110.23C12.8167 111.303 11.4167 112.82 10.39 114.78C9.36333 116.74 8.85 119.027 8.85 121.64C8.85 124.253 9.36333 126.54 10.39 128.5C11.4167 130.46 12.8167 132 14.59 133.12C16.3633 134.193 18.4167 134.73 20.75 134.73ZM65.8051 139.84C62.5384 139.84 59.5984 139.093 56.9851 137.6C54.3717 136.107 52.2951 134.007 50.7551 131.3C49.2617 128.547 48.5151 125.327 48.5151 121.64C48.5151 117.953 49.2851 114.757 50.8251 112.05C52.3651 109.297 54.4417 107.173 57.0551 105.68C59.7151 104.187 62.6784 103.44 65.9451 103.44C69.2117 103.44 72.1517 104.187 74.7651 105.68C77.3784 107.173 79.4317 109.297 80.9251 112.05C82.4651 114.757 83.2351 117.953 83.2351 121.64C83.2351 125.327 82.4651 128.547 80.9251 131.3C79.3851 134.007 77.2851 136.107 74.6251 137.6C72.0117 139.093 69.0717 139.84 65.8051 139.84ZM65.8051 134.8C67.8117 134.8 69.6784 134.31 71.4051 133.33C73.1317 132.35 74.5317 130.88 75.6051 128.92C76.6784 126.96 77.2151 124.533 77.2151 121.64C77.2151 118.747 76.6784 116.32 75.6051 114.36C74.5784 112.4 73.2017 110.93 71.4751 109.95C69.7484 108.97 67.9051 108.48 65.9451 108.48C63.9384 108.48 62.0717 108.97 60.3451 109.95C58.6184 110.93 57.2184 112.4 56.1451 114.36C55.0717 116.32 54.5351 118.747 54.5351 121.64C54.5351 124.533 55.0717 126.96 56.1451 128.92C57.2184 130.88 58.5951 132.35 60.2751 133.33C62.0017 134.31 63.8451 134.8 65.8051 134.8ZM110.361 139.84C106.908 139.84 103.874 139.047 101.261 137.46C98.6942 135.873 96.6875 133.703 95.2409 130.95C93.8409 128.197 93.1409 125.07 93.1409 121.57C93.1409 118.07 93.8642 114.967 95.3109 112.26C96.7575 109.507 98.7642 107.36 101.331 105.82C103.898 104.233 106.931 103.44 110.431 103.44C113.278 103.44 115.798 104.023 117.991 105.19C120.184 106.357 121.888 107.99 123.101 110.09V88.6H128.981V139H123.661L123.101 133.26C121.981 134.94 120.371 136.457 118.271 137.81C116.171 139.163 113.534 139.84 110.361 139.84ZM110.991 134.73C113.324 134.73 115.378 134.193 117.151 133.12C118.971 132 120.371 130.46 121.351 128.5C122.378 126.54 122.891 124.253 122.891 121.64C122.891 119.027 122.378 116.74 121.351 114.78C120.371 112.82 118.971 111.303 117.151 110.23C115.378 109.11 113.324 108.55 110.991 108.55C108.704 108.55 106.651 109.11 104.831 110.23C103.058 111.303 101.658 112.82 100.631 114.78C99.6509 116.74 99.1609 119.027 99.1609 121.64C99.1609 124.253 99.6509 126.54 100.631 128.5C101.658 130.46 103.058 132 104.831 133.12C106.651 134.193 108.704 134.73 110.991 134.73ZM157.726 139.84C154.413 139.84 151.426 139.093 148.766 137.6C146.153 136.06 144.076 133.937 142.536 131.23C141.043 128.477 140.296 125.28 140.296 121.64C140.296 118 141.043 114.827 142.536 112.12C144.076 109.367 146.153 107.243 148.766 105.75C151.426 104.21 154.413 103.44 157.726 103.44C161.833 103.44 165.286 104.513 168.086 106.66C170.933 108.807 172.729 111.677 173.476 115.27H167.456C166.989 113.123 165.846 111.467 164.026 110.3C162.206 109.087 160.083 108.48 157.656 108.48C155.696 108.48 153.853 108.97 152.126 109.95C150.399 110.93 148.999 112.4 147.926 114.36C146.853 116.32 146.316 118.747 146.316 121.64C146.316 124.533 146.853 126.96 147.926 128.92C148.999 130.88 150.399 132.373 152.126 133.4C153.853 134.38 155.696 134.87 157.656 134.87C160.083 134.87 162.206 134.287 164.026 133.12C165.846 131.907 166.989 130.203 167.456 128.01H173.476C172.776 131.51 171.003 134.357 168.156 136.55C165.309 138.743 161.833 139.84 157.726 139.84ZM196.438 139.84C193.544 139.84 191.141 139.35 189.228 138.37C187.314 137.39 185.891 136.083 184.958 134.45C184.024 132.817 183.558 131.043 183.558 129.13C183.558 125.583 184.911 122.853 187.618 120.94C190.324 119.027 194.011 118.07 198.678 118.07H208.058V117.65C208.058 114.617 207.264 112.33 205.678 110.79C204.091 109.203 201.968 108.41 199.308 108.41C197.021 108.41 195.038 108.993 193.358 110.16C191.724 111.28 190.698 112.937 190.278 115.13H184.258C184.491 112.61 185.331 110.487 186.778 108.76C188.271 107.033 190.114 105.727 192.308 104.84C194.501 103.907 196.834 103.44 199.308 103.44C204.161 103.44 207.801 104.747 210.228 107.36C212.701 109.927 213.938 113.357 213.938 117.65V139H208.688L208.338 132.77C207.358 134.73 205.911 136.41 203.998 137.81C202.131 139.163 199.611 139.84 196.438 139.84ZM197.348 134.87C199.588 134.87 201.501 134.287 203.088 133.12C204.721 131.953 205.958 130.437 206.798 128.57C207.638 126.703 208.058 124.743 208.058 122.69V122.62H199.168C195.714 122.62 193.264 123.227 191.818 124.44C190.418 125.607 189.718 127.077 189.718 128.85C189.718 130.67 190.371 132.14 191.678 133.26C193.031 134.333 194.921 134.87 197.348 134.87ZM239.259 139.84C235.106 139.84 231.652 138.79 228.899 136.69C226.146 134.59 224.536 131.743 224.069 128.15H230.089C230.462 129.97 231.419 131.557 232.959 132.91C234.546 134.217 236.669 134.87 239.329 134.87C241.802 134.87 243.622 134.357 244.789 133.33C245.956 132.257 246.539 130.997 246.539 129.55C246.539 127.45 245.769 126.05 244.229 125.35C242.736 124.65 240.612 124.02 237.859 123.46C235.992 123.087 234.126 122.55 232.259 121.85C230.392 121.15 228.829 120.17 227.569 118.91C226.309 117.603 225.679 115.9 225.679 113.8C225.679 110.767 226.799 108.293 229.039 106.38C231.326 104.42 234.406 103.44 238.279 103.44C241.966 103.44 244.976 104.373 247.309 106.24C249.689 108.06 251.066 110.673 251.439 114.08H245.629C245.396 112.307 244.626 110.93 243.319 109.95C242.059 108.923 240.356 108.41 238.209 108.41C236.109 108.41 234.476 108.853 233.309 109.74C232.189 110.627 231.629 111.793 231.629 113.24C231.629 114.64 232.352 115.737 233.799 116.53C235.292 117.323 237.299 118 239.819 118.56C241.966 119.027 243.996 119.61 245.909 120.31C247.869 120.963 249.456 121.967 250.669 123.32C251.929 124.627 252.559 126.54 252.559 129.06C252.606 132.187 251.416 134.777 248.989 136.83C246.609 138.837 243.366 139.84 239.259 139.84ZM276.307 139C273.133 139 270.637 138.23 268.817 136.69C266.997 135.15 266.087 132.373 266.087 128.36V109.25H260.067V104.28H266.087L266.857 95.95H271.967V104.28H282.187V109.25H271.967V128.36C271.967 130.553 272.41 132.047 273.297 132.84C274.183 133.587 275.747 133.96 277.987 133.96H281.627V139H276.307ZM328.302 139C325.129 139 322.632 138.23 320.812 136.69C318.992 135.15 318.082 132.373 318.082 128.36V109.25H312.062V104.28H318.082L318.852 95.95H323.962V104.28H334.182V109.25H323.962V128.36C323.962 130.553 324.406 132.047 325.292 132.84C326.179 133.587 327.742 133.96 329.982 133.96H333.622V139H328.302ZM359.716 139.84C356.449 139.84 353.509 139.093 350.896 137.6C348.282 136.107 346.206 134.007 344.666 131.3C343.172 128.547 342.426 125.327 342.426 121.64C342.426 117.953 343.196 114.757 344.736 112.05C346.276 109.297 348.352 107.173 350.966 105.68C353.626 104.187 356.589 103.44 359.856 103.44C363.122 103.44 366.062 104.187 368.676 105.68C371.289 107.173 373.342 109.297 374.836 112.05C376.376 114.757 377.146 117.953 377.146 121.64C377.146 125.327 376.376 128.547 374.836 131.3C373.296 134.007 371.196 136.107 368.536 137.6C365.922 139.093 362.982 139.84 359.716 139.84ZM359.716 134.8C361.722 134.8 363.589 134.31 365.316 133.33C367.042 132.35 368.442 130.88 369.516 128.92C370.589 126.96 371.126 124.533 371.126 121.64C371.126 118.747 370.589 116.32 369.516 114.36C368.489 112.4 367.112 110.93 365.386 109.95C363.659 108.97 361.816 108.48 359.856 108.48C357.849 108.48 355.982 108.97 354.256 109.95C352.529 110.93 351.129 112.4 350.056 114.36C348.982 116.32 348.446 118.747 348.446 121.64C348.446 124.533 348.982 126.96 350.056 128.92C351.129 130.88 352.506 132.35 354.186 133.33C355.912 134.31 357.756 134.8 359.716 134.8ZM423.967 139C420.793 139 418.297 138.23 416.477 136.69C414.657 135.15 413.747 132.373 413.747 128.36V109.25H407.727V104.28H413.747L414.517 95.95H419.627V104.28H429.847V109.25H419.627V128.36C419.627 130.553 420.07 132.047 420.957 132.84C421.843 133.587 423.407 133.96 425.647 133.96H429.287V139H423.967ZM440.517 139V88.6H446.397V110.23C447.564 108.083 449.22 106.427 451.367 105.26C453.514 104.047 455.847 103.44 458.367 103.44C462.38 103.44 465.6 104.7 468.027 107.22C470.454 109.693 471.667 113.52 471.667 118.7V139H465.857V119.33C465.857 112.097 462.94 108.48 457.107 108.48C454.074 108.48 451.53 109.577 449.477 111.77C447.424 113.917 446.397 116.997 446.397 121.01V139H440.517ZM499.386 139.84C496.072 139.84 493.132 139.093 490.566 137.6C487.999 136.06 485.969 133.937 484.476 131.23C483.029 128.523 482.306 125.327 482.306 121.64C482.306 118 483.029 114.827 484.476 112.12C485.922 109.367 487.929 107.243 490.496 105.75C493.109 104.21 496.119 103.44 499.526 103.44C502.886 103.44 505.779 104.21 508.206 105.75C510.679 107.243 512.569 109.227 513.876 111.7C515.182 114.173 515.836 116.833 515.836 119.68C515.836 120.193 515.812 120.707 515.766 121.22C515.766 121.733 515.766 122.317 515.766 122.97H488.116C488.256 125.63 488.862 127.847 489.936 129.62C491.056 131.347 492.432 132.653 494.066 133.54C495.746 134.427 497.519 134.87 499.386 134.87C501.812 134.87 503.842 134.31 505.476 133.19C507.109 132.07 508.299 130.553 509.046 128.64H514.856C513.922 131.86 512.126 134.543 509.466 136.69C506.852 138.79 503.492 139.84 499.386 139.84ZM499.386 108.41C496.586 108.41 494.089 109.273 491.896 111C489.749 112.68 488.512 115.153 488.186 118.42H510.026C509.886 115.293 508.812 112.843 506.806 111.07C504.799 109.297 502.326 108.41 499.386 108.41Z" fill="white"/>
</svg>
